<svg xmlns="http://www.w3.org/2000/svg" width="16" height="16" viewBox="0 0 16 16" fill="none">
<path d="M15.4001 8.116C15.4001 7.48533 15.3478 6.88 15.2434 6.30933H8.00012V9.09333H12.1218C11.9391 9.99333 11.4434 10.7333 10.7001 11.2333V13.0467H13.1911C14.6118 11.7433 15.4001 10.088 15.4001 8.116Z" fill="#4285F4"/>
<path d="M8.00006 15.5999C10.0334 15.5999 11.7334 14.9066 13.1911 13.0466L10.7001 11.2333C10.0001 11.6666 9.10339 11.9199 8.00006 11.9199C6.00006 11.9199 4.30006 10.6199 3.65339 8.86658H1.07339V10.7399C2.52673 13.5999 5.06673 15.5999 8.00006 15.5999Z" fill="#34A853"/>
<path d="M3.65332 8.86667C3.49999 8.43333 3.41332 7.97333 3.41332 7.5C3.41332 7.02667 3.49999 6.56667 3.65332 6.13333V4.26H1.07332C0.613322 5.22667 0.333322 6.33333 0.333322 7.5C0.333322 8.66667 0.613322 9.77333 1.07332 10.74L3.65332 8.86667Z" fill="#FBBC05"/>
<path d="M8.00006 3.08C9.15339 3.08 10.1834 3.48667 11.0001 4.26667L13.2001 2.06667C11.7334 0.693333 10.0334 0 8.00006 0C5.06673 0 2.52673 2 1.07339 4.86L3.65339 6.73333C4.30006 4.98 6.00006 3.08 8.00006 3.08Z" fill="#EA4335"/>
</svg>
