<svg width="32" height="32" viewBox="0 0 32 32" fill="none" xmlns="http://www.w3.org/2000/svg">
<path d="M16 32C24.8366 32 32 24.8366 32 16C32 7.16344 24.8366 0 16 0C7.16344 0 0 7.16344 0 16C0 24.8366 7.16344 32 16 32Z" fill="#0C111D"/>
<path d="M16.0001 6.40002C10.6979 6.40002 6.40015 10.6978 6.40015 16C6.40015 21.3022 10.6979 25.6 16.0001 25.6C21.3023 25.6 25.6001 21.3022 25.6001 16C25.6001 10.6978 21.3023 6.40002 16.0001 6.40002ZM16.0001 22.4C12.4655 22.4 9.60015 19.5346 9.60015 16C9.60015 12.4654 12.4655 9.60002 16.0001 9.60002C19.5347 9.60002 22.4001 12.4654 22.4001 16C22.4001 19.5346 19.5347 22.4 16.0001 22.4Z" fill="white"/>
<path d="M16.0001 12.8C14.2328 12.8 12.8002 14.2327 12.8002 16C12.8002 17.7673 14.2328 19.2 16.0001 19.2C17.7674 19.2 19.2001 17.7673 19.2001 16C19.2001 14.2327 17.7674 12.8 16.0001 12.8Z" fill="white"/>
</svg>
